<?xml version="1.0" encoding="utf-8"?>
<!-- Generator: Adobe Illustrator 16.2.1, SVG Export Plug-In . SVG Version: 6.00 Build 0)  -->
<!DOCTYPE svg PUBLIC "-//W3C//DTD SVG 1.0//EN" "http://www.w3.org/TR/2001/REC-SVG-20010904/DTD/svg10.dtd">
<svg version="1.0" id="Layer_1" xmlns="http://www.w3.org/2000/svg" xmlns:xlink="http://www.w3.org/1999/xlink" x="0px" y="0px"
	 width="96.693px" height="35.59px" viewBox="0 0 96.693 35.59" enable-background="new 0 0 96.693 35.59" xml:space="preserve">
<g>
	<path fill="#FFFFFF" d="M12.141,12.283L8.646,3.52l-3.496,8.763H12.141z M7.503,0.7h2.4l6.922,17.387h-2.423l-1.424-3.636H4.357
		l-1.422,3.636H0.58L7.503,0.7z"/>
	<g>
		<path fill="#FFFFFF" d="M26.917,11.561c0-3.426-1.096-4.591-4.219-4.591c-2.982,0-3.753,1.748-3.753,4.591
			c0,2.844,0.771,4.686,3.753,4.686C25.752,16.247,26.917,14.964,26.917,11.561 M26.917,16.781
			c-0.863,1.119-2.121,1.538-4.709,1.538c-4.336,0-5.57-2.795-5.57-6.758c0-3.963,1.259-6.736,5.64-6.736
			c2.797,0,4.125,0.489,4.918,1.563l0.418-1.422l1.586,0.138v16.828h-2.283V16.781z"/>
		<path fill="#FFFFFF" d="M31.322,12.54V5.128h2.26v7.458c0,2.051,0.023,3.658,3.449,3.658c3.449,0,3.427-1.607,3.427-3.727V5.128
			h2.214v7.342c0,3.821-0.654,5.848-5.641,5.848C32.045,18.318,31.322,16.292,31.322,12.54"/>
		<path fill="#FFFFFF" d="M53.229,12.376v-0.791h-0.582c-5.337,0-6.502,0.605-6.502,2.656c0,1.375,0.629,2.121,2.844,2.121
			C51.993,16.362,53.229,15.15,53.229,12.376 M43.976,14.405c0-3.684,2.074-4.756,8.554-4.756h0.698
			c-0.045-1.864-0.488-2.703-3.238-2.703c-1.633,0-3.008,0.583-3.823,1.096L44.978,6.27c0.862-0.583,2.916-1.445,5.221-1.445
			c4.427,0,5.22,1.516,5.22,5.198v4.614c0,1.258,0.095,1.446,1.282,1.446v1.981c-0.162,0.046-0.467,0.046-0.932,0.046
			c-1.422,0-1.889-0.396-2.213-1.469c-0.772,1.096-2.168,1.678-4.941,1.678C44.884,18.319,43.976,16.594,43.976,14.405"/>
		<path fill="#FFFFFF" d="M57.471,9.44c0-6.082,3.191-8.903,8.739-8.903c2.634,0,4.685,0.768,6.245,2.26l-1.701,1.702
			c-1.188-1.096-2.68-1.702-4.566-1.702c-4.241,0-6.34,2.237-6.34,6.666c0,4.358,1.935,6.664,6.362,6.664
			c2.492,0,3.658-0.791,4.685-1.769l1.679,1.608c-1.235,1.235-2.985,2.376-6.479,2.376C60.105,18.342,57.471,15.243,57.471,9.44"/>
		<path fill="#FFFFFF" d="M75.184,10.465h7.41c-0.117-2.051-0.304-3.637-3.381-3.637C76.256,6.829,75.368,8.273,75.184,10.465
			 M72.969,11.584c0-3.729,1.141-6.76,6.315-6.76c5.336,0,5.524,3.705,5.454,7.646h-9.58c0.139,2.352,0.956,3.915,4.172,3.915
			c2.1,0,3.123-0.537,4.126-1.283l1.214,1.585c-1.375,1.073-2.893,1.655-5.34,1.655C74.018,18.343,72.969,15.336,72.969,11.584"/>
		<path fill="#FFFFFF" d="M86.555,14.73V0h2.237v14.474c0,1.212,0.188,1.608,1.446,1.608h0.511v1.982
			c-0.209,0.022-0.723,0.046-1.28,0.046C87.301,18.11,86.555,17.201,86.555,14.73"/>
		<path fill="#FFFFFF" d="M92.5,14.73V0h2.235v14.474c0,1.212,0.187,1.608,1.444,1.608h0.514v1.982
			c-0.21,0.022-0.722,0.046-1.283,0.046C93.244,18.11,92.5,17.201,92.5,14.73"/>
	</g>
	<g>
		<path fill="#FFFFFF" d="M3.656,32.674H1.794v2.759H0v-8.311h4.015c2.613,0,3.241,1.122,3.241,2.714c0,1.144-0.37,2.198-1.75,2.635
			l1.649,2.961H5.192L3.656,32.674z M3.959,31.092c0.998,0,1.447-0.247,1.447-1.189c0-0.964-0.426-1.211-1.469-1.211H1.794v2.4
			H3.959z"/>
	</g>
	<g>
		<path fill="#FFFFFF" d="M10.768,27.066h1.862l3.354,8.367h-1.907l-0.538-1.368H9.77l-0.538,1.368H7.437L10.768,27.066z
			 M12.955,32.55l-1.301-3.309l-1.301,3.309H12.955z"/>
	</g>
	<g>
		<path fill="#FFFFFF" d="M16.758,27.122h1.828v8.311h-1.828V27.122z"/>
	</g>
	<g>
		<path fill="#FFFFFF" d="M20.045,27.122h1.985l3.825,5.238v-5.238h1.75v8.311h-1.683l-4.116-5.607v5.607h-1.761V27.122z"/>
	</g>
	<g>
		<path fill="#FFFFFF" d="M28.357,34.468l0.92-1.324c0.886,0.595,1.917,0.886,2.983,0.886c1.626,0,1.929-0.314,1.929-1.009
			c0-0.684-0.695-0.819-1.974-0.999c-2.221-0.314-3.376-0.718-3.376-2.523c0-1.851,1.122-2.512,3.465-2.512
			c1.694,0,2.726,0.392,3.365,0.818l-0.987,1.424c-0.527-0.348-1.503-0.639-2.4-0.639c-1.301,0-1.615,0.258-1.615,0.864
			c0,0.673,0.684,0.796,2.007,0.987c1.997,0.292,3.331,0.617,3.331,2.49c0,1.682-0.919,2.625-3.69,2.625
			C30.667,35.556,29.299,35.164,28.357,34.468z"/>
	</g>
	<g>
		<path fill="#FFFFFF" d="M38.419,34.468l0.92-1.324c0.886,0.595,1.917,0.886,2.983,0.886c1.626,0,1.929-0.314,1.929-1.009
			c0-0.684-0.695-0.819-1.974-0.999c-2.221-0.314-3.376-0.718-3.376-2.523c0-1.851,1.122-2.512,3.465-2.512
			c1.694,0,2.726,0.392,3.365,0.818l-0.987,1.424c-0.527-0.348-1.503-0.639-2.4-0.639c-1.301,0-1.615,0.258-1.615,0.864
			c0,0.673,0.684,0.796,2.007,0.987c1.997,0.292,3.331,0.617,3.331,2.49c0,1.682-0.919,2.625-3.69,2.625
			C40.729,35.556,39.361,35.164,38.419,34.468z"/>
	</g>
	<g>
		<path fill="#FFFFFF" d="M46.81,32.259v-5.137h1.839v4.901c0,1.234,0.303,1.94,1.985,1.94c1.671,0,1.997-0.662,1.997-1.94v-4.901
			h1.783v5.137c0,1.592-0.304,3.331-3.803,3.331C47.101,35.59,46.81,33.851,46.81,32.259z"/>
	</g>
	<g>
		<path fill="#FFFFFF" d="M55.693,27.122h3.993c2.557,0,3.319,1.077,3.319,2.781c0,1.705-0.718,2.983-3.409,2.983h-2.108v2.546
			h-1.795V27.122z M59.676,31.316c1.043,0,1.49-0.359,1.49-1.323c0-0.998-0.426-1.301-1.514-1.301h-2.164v2.624H59.676z"/>
	</g>
	<g>
		<path fill="#FFFFFF" d="M67.538,32.674h-1.861v2.759h-1.794v-8.311h4.015c2.612,0,3.241,1.122,3.241,2.714
			c0,1.144-0.37,2.198-1.75,2.635l1.648,2.961h-1.963L67.538,32.674z M67.842,31.092c0.998,0,1.446-0.247,1.446-1.189
			c0-0.964-0.427-1.211-1.47-1.211h-2.142v2.4H67.842z"/>
		<path fill="#FFFFFF" d="M72.229,27.122h6.246v1.66h-4.407v1.615h4.296v1.604h-4.296v1.839h4.452v1.593h-6.291V27.122z"/>
	</g>
	<g>
		<path fill="#FFFFFF" d="M79.598,27.122h2.4l2.254,5.675l2.254-5.675h2.389v8.311h-1.794v-5.552l-2.231,5.552h-1.391l-2.221-5.518
			v5.518h-1.66V27.122z"/>
	</g>
	<g>
		<path fill="#FFFFFF" d="M90.232,27.122h6.246v1.66h-4.407v1.615h4.296v1.604h-4.296v1.839h4.452v1.593h-6.291V27.122z"/>
	</g>
</g>
</svg>
